<svg xmlns="http://www.w3.org/2000/svg" width="128" height="128" viewBox="0 0 128 128">
  <rect width="128" height="128" rx="24" fill="#0a0a0f"/>
  <g transform="translate(24, 18)">
    <rect x="0" y="60" width="12" height="32" rx="2" fill="#ffd740" opacity="0.6"/>
    <line x1="6" y1="50" x2="6" y2="60" stroke="#ffd740" stroke-width="2" opacity="0.6"/>
    <line x1="6" y1="92" x2="6" y2="100" stroke="#ffd740" stroke-width="2" opacity="0.6"/>
    <rect x="20" y="40" width="12" height="45" rx="2" fill="#ffd740" opacity="0.75"/>
    <line x1="26" y1="28" x2="26" y2="40" stroke="#ffd740" stroke-width="2" opacity="0.75"/>
    <line x1="26" y1="85" x2="26" y2="98" stroke="#ffd740" stroke-width="2" opacity="0.75"/>
    <rect x="40" y="20" width="12" height="55" rx="2" fill="#ffd740"/>
    <line x1="46" y1="8" x2="46" y2="20" stroke="#ffd740" stroke-width="2"/>
    <line x1="46" y1="75" x2="46" y2="95" stroke="#ffd740" stroke-width="2"/>
    <rect x="60" y="35" width="12" height="40" rx="2" fill="#ffd740" opacity="0.85"/>
    <line x1="66" y1="22" x2="66" y2="35" stroke="#ffd740" stroke-width="2" opacity="0.85"/>
    <line x1="66" y1="75" x2="66" y2="92" stroke="#ffd740" stroke-width="2" opacity="0.85"/>
    <rect x="80" y="50" width="12" height="28" rx="2" fill="#ffd740" opacity="0.5"/>
    <line x1="86" y1="38" x2="86" y2="50" stroke="#ffd740" stroke-width="2" opacity="0.5"/>
    <line x1="86" y1="78" x2="86" y2="90" stroke="#ffd740" stroke-width="2" opacity="0.5"/>
  </g>
</svg>